<svg id="Layer_1" enable-background="new 0 0 512.117 512.117" height="512" viewBox="0 0 512.117 512.117" width="512" xmlns="http://www.w3.org/2000/svg"><g><path d="m309.838 228.821c11.651-26.09 6.145-57.491-14.028-79.996-20.048-22.367-49.395-30.138-78.5-20.789-16.153 5.185-33.213 2.278-46.808-7.981-13.529-10.21-20.967-25.794-20.408-42.757.921-27.924-11.206-51.813-33.273-65.543-23.569-14.667-54.623-15.691-79.112-2.609-22.93 12.249-36.61 35.292-37.531 63.221-1.816 55.034 18.278 107.145 56.581 146.731 38.31 39.595 89.738 61.401 144.81 61.401 74.123.001 99.65-32.378 108.269-51.678zm-27.392-12.233c-9.766 21.868-38.489 33.912-80.878 33.912-46.871 0-90.642-18.56-123.25-52.261-32.6-33.693-49.703-78.044-48.157-124.882.727-22.016 12.192-32.68 21.683-37.75 6.987-3.732 15.012-5.582 23.05-5.582 9.188 0 18.394 2.417 26.081 7.2 9.132 5.681 19.864 17.074 19.138 39.082-.886 26.85 10.894 51.522 32.319 67.692 21.175 15.98 48.857 20.69 74.054 12.598 25.232-8.105 41.264 5.867 46.986 12.25 12.094 13.494 15.7 32.679 8.974 47.741z"/><path d="m482.778 265.263c-22.662-16.252-53.692-19.335-79.053-7.854-23.56 10.665-38.638 32.623-41.368 60.241-1.418 14.343-8.988 27.318-20.767 35.598-11.817 8.307-26.61 11.051-40.588 7.53-47.571-11.979-81.661 18.272-90.748 54.347-9.119 36.205 6.206 79.042 53.141 90.865 16.313 4.107 32.883 6.127 49.35 6.127 40.961 0 81.28-12.499 115.37-36.466 47.365-33.302 77.805-85.51 83.514-143.238 2.726-27.572-7.79-52.047-28.851-67.15zm-1.003 64.198c-4.849 49.033-30.696 93.372-70.914 121.649-40.646 28.578-91.729 37.976-140.139 25.789-29.289-7.378-36.863-32.662-31.376-54.446 4.606-18.286 18.806-34.302 41.154-34.302 4.117 0 8.514.544 13.175 1.718 22.451 5.656 46.203 1.253 65.168-12.079 18.928-13.305 31.09-34.149 33.369-57.188 2.142-21.675 14.171-31.466 23.885-35.863 15.531-7.031 35.303-5.062 49.198 4.904 8.697 6.236 18.616 18.207 16.48 39.818z"/></g></svg>